<?xml version="1.0" encoding="iso-8859-1"?>
<!-- Generator: Adobe Illustrator 16.0.0, SVG Export Plug-In . SVG Version: 6.00 Build 0)  -->
<!DOCTYPE svg PUBLIC "-//W3C//DTD SVG 1.1//EN" "http://www.w3.org/Graphics/SVG/1.1/DTD/svg11.dtd">
<svg version="1.1" id="Capa_1" xmlns="http://www.w3.org/2000/svg" xmlns:xlink="http://www.w3.org/1999/xlink" x="0px" y="0px"
	 width="518.651px" height="518.652px" viewBox="0 0 518.651 518.652" style="enable-background:new 0 0 518.651 518.652;"
	 xml:space="preserve">
<g>
	<g>
		<path style="fill:#1f1f1f;" d="M380.129,243.337c0.688,5.661,0.994,11.322,0.994,17.06c0,81.854-66.325,148.181-148.181,148.181
			c-81.855,0-148.181-66.326-148.181-148.181c0-81.855,66.326-148.181,148.181-148.181c0.995,0,2.142,0,3.137,0
			c32.206-27.387,72.292-45.747,116.28-50.949c-35.19-21.42-76.424-33.736-120.564-33.736C103.734,27.531,0,131.265,0,259.326
			c0,128.061,103.734,231.795,231.795,231.795c128.062,0,231.948-103.734,231.948-231.795c0-22.032-3.137-43.299-8.722-63.495
			L380.129,243.337z"/>
		<path d="M352.282,61.114L352.282,61.114L352.282,61.114z"/>
		<path style="fill:#f26609;" d="M511.249,113.517L390.303,36.71c-9.868-6.196-17.9-1.836-17.9,9.869v27.54c-100.675,0.536-182.07,82.314-182.07,183.064
			c0,17.671,2.524,34.731,7.191,50.796c21.879-76.118,91.876-131.81,174.879-132.269v27.54c0,11.705,8.032,16.065,17.9,9.869
			l120.946-76.806C521.118,129.888,521.118,119.713,511.249,113.517z"/>
	</g>
</g>
<g>
</g>
<g>
</g>
<g>
</g>
<g>
</g>
<g>
</g>
<g>
</g>
<g>
</g>
<g>
</g>
<g>
</g>
<g>
</g>
<g>
</g>
<g>
</g>
<g>
</g>
<g>
</g>
<g>
</g>
</svg>
